<svg id="svg" version="1.1" xmlns="http://www.w3.org/2000/svg" xmlns:xlink="http://www.w3.org/1999/xlink" width="400" height="400" viewBox="0, 0, 400,400"><g id="svgg"><path id="path0" d="M166.267 91.099 C 152.464 92.519,145.067 103.766,145.067 123.333 C 145.067 145.806,155.706 158.234,172.718 155.634 C 185.938 153.614,194.202 139.270,192.679 120.987 L 192.485 118.667 182.243 118.667 L 172.000 118.667 172.000 125.067 L 172.000 131.467 174.783 131.467 L 177.566 131.467 177.428 132.467 C 176.533 138.910,174.276 141.946,169.948 142.527 C 163.722 143.362,160.800 137.231,160.800 123.333 C 160.800 110.223,163.206 104.445,168.667 104.442 C 172.080 104.440,173.954 106.691,174.793 111.800 L 174.958 112.800 183.079 112.800 L 191.200 112.800 191.196 112.200 C 191.177 109.256,188.233 101.977,185.600 98.365 C 181.844 93.211,174.084 90.295,166.267 91.099 M277.651 91.203 C 267.049 92.685,260.190 101.140,261.345 111.305 C 262.185 118.699,266.176 123.208,277.067 129.068 C 284.547 133.093,286.400 134.869,286.400 138.018 C 286.400 143.916,277.493 144.188,276.393 138.324 L 276.207 137.333 269.132 137.333 L 262.057 137.333 262.229 139.189 C 263.277 150.466,272.540 157.222,284.915 155.737 C 297.139 154.270,303.833 145.513,301.735 133.734 C 300.589 127.301,296.826 123.381,286.533 117.895 C 277.965 113.328,276.052 111.236,277.051 107.526 C 278.296 102.902,284.344 103.437,285.030 108.232 L 285.206 109.467 292.374 109.538 L 299.541 109.609 299.361 107.804 C 298.212 96.284,289.416 89.558,277.651 91.203 M50.133 123.467 L 50.133 155.200 68.133 155.200 L 86.133 155.200 86.133 148.800 L 86.133 142.400 76.000 142.400 L 65.867 142.400 65.867 136.267 L 65.867 130.133 73.467 130.133 L 81.067 130.133 81.067 123.467 L 81.067 116.800 73.467 116.800 L 65.867 116.800 65.867 110.667 L 65.867 104.533 76.000 104.533 L 86.133 104.533 86.133 98.133 L 86.133 91.733 68.133 91.733 L 50.133 91.733 50.133 123.467 M93.067 123.463 L 93.067 155.200 100.933 155.200 L 108.800 155.200 108.801 138.333 L 108.803 121.467 109.948 124.000 C 115.156 135.523,125.306 146.513,136.022 152.235 C 137.428 152.986,138.658 153.600,138.756 153.600 C 138.853 153.600,138.933 139.680,138.933 122.667 L 138.933 91.733 131.200 91.733 L 123.467 91.733 123.467 107.120 C 123.467 116.719,123.372 122.411,123.216 122.253 C 123.078 122.114,119.802 115.220,115.936 106.933 L 108.906 91.867 100.986 91.796 L 93.067 91.725 93.067 123.463 M198.400 123.467 L 198.400 155.200 216.800 155.200 L 235.200 155.200 235.200 148.800 L 235.200 142.400 224.800 142.400 L 214.400 142.400 214.400 117.067 L 214.400 91.733 206.400 91.733 L 198.400 91.733 198.400 123.467 M239.733 123.467 L 239.733 155.200 247.733 155.200 L 255.733 155.200 255.733 123.467 L 255.733 91.733 247.733 91.733 L 239.733 91.733 239.733 123.467 M307.467 123.467 L 307.467 155.200 315.331 155.200 L 323.195 155.200 323.264 142.600 L 323.333 130.000 328.867 129.928 L 334.400 129.856 334.400 142.528 L 334.400 155.200 342.267 155.200 L 350.133 155.200 350.133 123.467 L 350.133 91.733 342.267 91.733 L 334.400 91.733 334.400 104.272 L 334.400 116.811 328.867 116.739 L 323.333 116.667 323.264 104.200 L 323.195 91.733 315.331 91.733 L 307.467 91.733 307.467 123.467 M300.309 174.482 C 300.150 174.674,299.502 176.324,298.870 178.149 L 297.720 181.467 295.593 181.600 C 293.538 181.729,293.467 181.756,293.467 182.400 C 293.467 183.029,293.564 183.074,295.200 183.200 C 297.275 183.360,297.265 182.909,295.314 188.332 C 292.002 197.541,288.728 202.129,286.508 200.675 C 285.189 199.810,285.620 197.749,289.244 187.612 C 291.088 182.456,291.197 181.733,290.135 181.733 C 289.377 181.733,289.337 181.819,286.530 189.488 C 283.902 196.671,282.094 198.778,279.337 197.868 C 277.955 197.412,277.879 197.661,281.739 190.071 C 285.441 182.795,285.857 181.600,284.688 181.600 C 284.114 181.600,283.688 182.289,280.888 187.752 C 278.260 192.875,277.720 193.769,277.651 193.098 C 277.595 192.556,277.384 192.234,277.004 192.114 C 276.063 191.815,275.699 192.651,275.758 194.973 C 275.847 198.428,272.718 202.032,270.904 200.563 C 269.697 199.586,270.175 197.360,273.643 187.800 C 275.631 182.322,275.719 181.779,274.644 181.653 C 273.982 181.576,273.893 181.759,271.862 187.387 C 267.949 198.228,265.195 202.227,262.733 200.641 C 261.491 199.840,261.884 197.935,265.202 188.669 C 267.588 182.006,267.678 181.510,266.468 181.649 C 265.402 181.771,260.777 194.351,260.348 198.295 C 259.857 202.808,263.635 204.243,267.207 200.901 C 267.937 200.218,268.533 199.809,268.533 199.990 C 268.533 203.440,272.902 203.570,275.843 200.207 L 277.027 198.854 277.954 199.294 C 279.346 199.954,281.501 199.860,282.867 199.079 L 284.000 198.431 284.000 199.362 C 284.000 203.013,287.772 203.865,290.916 200.924 L 292.217 199.707 292.528 200.649 C 293.240 202.809,295.689 203.324,298.502 201.905 C 299.673 201.314,299.982 201.239,299.879 201.572 C 299.676 202.224,300.122 202.724,300.816 202.623 C 301.367 202.544,301.692 201.850,303.610 196.667 C 307.451 186.285,310.407 182.303,313.423 183.450 C 315.321 184.172,315.236 185.637,312.901 192.480 C 310.421 199.747,310.896 202.667,314.559 202.667 C 317.110 202.667,318.878 200.956,321.353 196.095 C 322.730 193.390,322.947 192.431,322.245 192.162 C 321.460 191.861,321.340 191.996,319.968 194.733 C 317.264 200.126,315.124 202.057,313.570 200.504 C 312.730 199.663,312.997 197.989,314.824 192.636 C 317.510 184.769,317.016 181.908,312.929 181.648 C 311.333 181.546,311.055 181.610,309.854 182.357 C 309.128 182.809,308.533 183.134,308.533 183.080 C 308.533 183.026,309.138 181.266,309.878 179.168 C 311.305 175.119,311.407 174.315,310.510 174.187 C 309.681 174.069,309.656 174.123,306.404 183.333 C 301.765 196.473,299.589 200.181,296.084 200.922 C 293.105 201.551,293.760 197.274,298.573 184.667 L 299.082 183.333 301.274 183.256 L 303.467 183.178 303.467 182.389 L 303.467 181.600 301.778 181.600 C 299.566 181.600,299.606 181.754,300.868 178.127 C 301.789 175.476,301.909 174.905,301.616 174.553 C 301.192 174.042,300.697 174.015,300.309 174.482 M290.755 176.964 C 289.893 178.280,291.357 179.706,292.786 178.941 C 293.407 178.608,293.551 177.124,293.013 176.587 C 292.436 176.010,291.251 176.208,290.755 176.964 M135.067 178.765 C 131.593 180.395,127.893 184.949,125.558 190.467 C 125.108 191.530,124.716 192.427,124.687 192.461 C 124.658 192.494,120.682 193.128,115.850 193.870 C 94.137 197.205,86.813 199.635,80.900 205.467 C 71.203 215.030,74.914 231.528,87.229 233.605 C 89.542 233.995,90.745 233.791,91.455 232.887 C 92.769 231.217,91.763 229.248,89.433 228.934 C 77.608 227.336,77.031 212.432,88.543 205.939 C 93.301 203.255,99.636 201.459,110.888 199.604 C 114.946 198.935,119.227 198.224,120.400 198.024 C 121.573 197.824,122.555 197.678,122.580 197.699 C 122.606 197.721,121.850 200.017,120.899 202.803 C 119.948 205.588,117.563 213.027,115.599 219.333 C 109.408 239.217,106.925 246.008,103.684 251.922 L 102.631 253.843 100.416 252.153 C 88.453 243.025,76.647 244.815,73.978 256.161 C 70.483 271.016,90.143 275.817,102.019 263.008 L 103.637 261.262 112.891 270.351 C 125.508 282.743,130.488 286.808,136.667 289.756 C 146.830 294.606,159.490 292.021,164.132 284.149 C 164.646 283.278,165.067 282.282,165.067 281.936 C 165.067 279.378,161.981 278.420,160.613 280.552 C 157.951 284.698,154.876 286.528,149.435 287.204 C 141.186 288.229,134.274 284.255,120.000 270.282 C 116.407 266.765,111.881 262.337,109.943 260.442 L 106.420 256.998 108.003 254.166 C 111.583 247.763,115.086 238.201,121.300 217.867 C 123.753 209.841,127.008 200.043,127.952 197.845 L 128.476 196.623 131.116 195.786 C 142.804 192.081,148.344 185.266,143.782 180.206 C 141.830 178.041,137.969 177.402,135.067 178.765 M139.512 183.108 C 141.287 184.714,137.847 188.351,132.860 190.142 C 130.917 190.840,130.730 190.768,131.352 189.558 C 133.841 184.717,137.817 181.574,139.512 183.108 M238.917 205.683 C 232.173 207.582,231.991 216.620,238.585 222.133 L 239.701 223.067 238.826 225.200 C 237.467 228.512,229.547 245.777,227.204 250.533 C 221.820 261.463,216.315 266.633,212.160 264.662 C 208.015 262.694,210.131 253.879,222.909 219.897 C 224.541 215.556,224.186 213.867,221.642 213.867 C 219.824 213.867,219.760 213.990,215.317 226.133 C 204.272 256.320,200.552 262.770,193.078 264.685 C 185.915 266.520,182.592 260.320,185.708 250.933 C 186.268 249.247,189.353 240.874,192.563 232.328 C 195.773 223.782,198.400 216.426,198.400 215.983 C 198.400 214.115,195.606 213.067,194.358 214.467 C 193.813 215.080,191.283 221.477,185.581 236.667 C 177.643 257.809,170.281 267.586,164.533 264.616 C 160.555 262.560,162.086 255.865,173.614 224.912 C 177.465 214.571,177.547 213.600,174.573 213.600 C 172.910 213.600,172.440 214.092,171.329 216.994 C 170.053 220.326,170.142 220.270,168.930 218.511 C 165.501 213.533,157.756 212.628,151.929 216.526 C 139.609 224.766,129.278 253.903,134.807 264.815 C 138.803 272.699,149.150 271.141,156.462 261.553 C 157.571 260.098,157.721 260.184,157.942 262.400 C 158.927 272.308,170.942 272.334,178.429 262.444 C 179.197 261.430,179.768 260.882,179.832 261.100 C 179.891 261.301,180.084 262.007,180.262 262.667 C 182.671 271.623,194.464 272.460,202.710 264.260 L 205.287 261.698 205.453 262.800 C 206.045 266.748,208.810 269.422,212.673 269.783 C 220.551 270.518,226.653 264.051,234.487 246.667 C 235.578 244.247,238.104 238.693,240.102 234.325 C 242.099 229.957,243.733 226.263,243.733 226.117 C 243.733 225.541,244.499 225.617,246.146 226.356 C 247.092 226.780,249.907 227.804,252.401 228.631 L 256.935 230.134 253.845 239.432 C 250.337 249.983,249.213 254.007,248.792 257.512 C 247.061 271.947,261.139 274.545,270.046 261.434 C 271.874 258.741,271.812 258.753,272.173 261.045 C 273.952 272.349,286.042 272.839,294.699 261.959 L 296.107 260.190 296.457 262.265 C 297.956 271.136,307.106 272.615,314.548 265.188 C 319.342 260.405,327.232 245.701,326.355 243.184 C 325.383 240.396,322.569 241.253,321.052 244.800 C 317.932 252.090,313.926 258.884,311.053 261.757 C 307.938 264.872,304.170 265.893,302.385 264.108 C 299.454 261.177,300.995 255.025,312.272 224.642 C 315.639 215.568,315.725 215.192,314.660 214.127 C 314.083 213.550,312.331 213.404,311.476 213.862 C 311.192 214.014,310.515 215.352,309.857 217.062 C 308.646 220.209,308.519 220.366,308.044 219.323 C 305.689 214.154,297.096 212.513,291.148 216.095 C 284.790 219.925,278.355 229.728,274.691 241.166 C 270.002 255.805,260.806 267.119,255.603 264.650 C 251.881 262.884,252.801 257.427,260.585 235.098 C 263.506 226.720,263.637 227.106,257.176 225.035 C 252.524 223.545,246.224 221.162,246.007 220.811 C 245.931 220.689,246.244 219.407,246.702 217.961 C 249.280 209.821,245.484 203.833,238.917 205.683 M242.229 211.000 C 243.041 212.301,242.683 215.938,241.580 217.604 C 240.946 218.561,238.683 214.834,238.673 212.817 C 238.662 210.668,241.209 209.366,242.229 211.000 M162.541 219.675 C 164.651 220.761,166.091 222.874,166.686 225.753 L 167.015 227.344 165.618 231.072 C 157.857 251.788,152.467 261.099,146.548 264.013 C 138.098 268.173,135.627 258.853,140.924 242.800 C 146.515 225.852,155.622 216.110,162.541 219.675 M301.227 219.759 C 303.475 220.915,305.287 224.011,305.362 226.824 C 305.424 229.163,297.711 247.884,294.269 253.749 C 284.366 270.620,273.718 268.190,277.492 249.918 C 281.527 230.382,293.155 215.607,301.227 219.759 M89.747 251.761 C 91.679 252.376,94.775 254.103,97.299 255.974 C 100.184 258.114,100.167 257.845,97.582 260.353 C 88.898 268.776,76.014 266.478,78.770 256.998 C 80.160 252.217,84.569 250.114,89.747 251.761 " stroke="none" fill="#05acf3" fill-rule="evenodd"></path><path id="path1" d="M108.803 141.777 L 108.800 161.821 97.933 161.938 C 87.971 162.046,86.845 162.105,84.400 162.644 C 67.222 166.433,54.821 178.760,50.875 195.969 C 50.189 198.959,49.765 267.051,50.401 272.000 C 52.955 291.865,68.952 307.144,89.200 309.056 C 93.280 309.441,306.987 309.441,311.067 309.056 C 331.298 307.145,347.314 291.849,349.866 272.000 C 350.502 267.051,350.077 198.959,349.392 195.969 C 345.457 178.812,333.142 166.563,315.867 162.625 L 313.200 162.017 238.400 161.869 L 163.600 161.721 160.523 161.018 C 149.495 158.499,137.237 153.705,131.467 149.654 C 122.018 143.022,113.873 133.338,109.696 123.771 L 108.807 121.733 108.803 141.777 M311.048 174.286 C 311.597 174.836,311.656 174.546,310.133 178.800 C 308.653 182.936,308.592 183.204,309.276 182.585 C 310.631 181.359,313.081 181.001,314.648 181.800 C 317.292 183.149,317.356 185.352,314.962 192.630 C 312.784 199.251,312.817 201.255,315.092 200.684 C 316.371 200.363,317.957 198.409,319.632 195.090 C 321.029 192.323,321.270 191.992,321.840 192.059 C 323.212 192.219,323.159 192.839,321.490 196.145 C 318.395 202.271,314.686 204.531,312.122 201.854 C 310.570 200.235,310.863 197.685,313.425 190.518 C 315.135 185.733,314.891 183.467,312.666 183.467 C 309.536 183.467,307.060 187.448,302.682 199.523 C 301.863 201.781,301.405 202.693,301.028 202.812 C 300.388 203.016,299.733 202.512,299.733 201.816 C 299.733 201.307,299.718 201.308,298.972 201.839 C 296.381 203.684,292.267 202.684,292.267 200.209 C 292.267 199.723,292.126 199.801,291.333 200.729 C 288.443 204.104,283.779 203.216,283.739 199.282 L 283.733 198.698 282.600 199.346 C 281.208 200.141,279.440 200.201,278.062 199.498 L 277.078 198.996 275.872 200.408 C 273.615 203.049,270.861 203.663,269.267 201.879 C 268.863 201.428,268.533 200.880,268.533 200.662 C 268.533 200.074,268.334 200.162,267.002 201.334 C 263.249 204.638,259.382 202.476,260.272 197.570 C 260.568 195.939,263.219 187.959,264.870 183.733 C 265.631 181.783,265.842 181.467,266.382 181.467 C 267.602 181.467,267.670 182.180,266.703 184.863 C 261.891 198.214,261.422 200.278,263.106 200.700 C 265.614 201.330,268.126 197.485,271.581 187.733 C 273.702 181.746,273.839 181.467,274.648 181.467 C 275.965 181.467,275.888 182.032,273.783 187.775 C 270.097 197.833,269.604 200.800,271.619 200.800 C 273.533 200.800,275.752 197.831,275.545 195.546 C 275.285 192.677,276.590 190.817,277.661 192.531 C 277.959 193.008,278.293 192.470,280.930 187.265 C 283.522 182.147,283.942 181.467,284.504 181.467 C 286.102 181.467,285.941 182.006,282.022 189.780 C 277.937 197.886,277.941 197.867,280.198 197.867 C 282.652 197.867,284.258 195.700,286.404 189.498 C 288.991 182.016,289.541 180.997,290.663 181.598 C 291.407 181.996,291.439 181.856,289.103 188.401 C 285.581 198.273,285.208 200.291,286.835 200.699 C 289.476 201.362,293.351 194.798,296.651 184.067 C 296.829 183.490,296.772 183.467,295.227 183.467 C 291.943 183.467,292.324 181.405,295.632 181.278 L 297.656 181.200 298.895 177.733 C 299.987 174.676,300.210 174.256,300.785 174.175 C 302.146 173.983,302.198 174.721,301.053 177.963 C 300.477 179.597,300.004 181.018,300.002 181.121 C 300.001 181.224,300.738 181.344,301.639 181.387 C 304.958 181.548,304.557 183.285,301.172 183.412 L 299.067 183.491 296.998 189.412 C 293.782 198.621,293.517 200.800,295.615 200.800 C 299.401 200.800,301.799 196.417,308.292 177.620 C 309.635 173.735,310.025 173.263,311.048 174.286 M293.267 176.732 C 294.302 178.088,292.810 179.882,291.262 179.144 C 290.247 178.660,290.084 177.053,290.985 176.416 C 291.691 175.917,292.757 176.065,293.267 176.732 M141.121 178.281 C 144.820 179.541,146.491 183.623,144.727 187.087 C 143.003 190.473,136.930 194.323,130.440 196.143 C 129.543 196.395,128.700 196.736,128.567 196.901 C 127.849 197.789,124.560 207.560,120.524 220.800 C 115.015 238.869,110.951 249.684,107.595 255.209 C 106.386 257.199,105.330 255.804,115.893 266.174 C 133.588 283.545,138.930 287.076,147.467 287.042 C 153.449 287.019,157.924 284.920,160.060 281.135 C 162.122 277.481,166.469 279.488,164.719 283.285 C 161.277 290.750,149.883 294.458,140.133 291.285 C 132.950 288.948,127.886 285.102,113.513 271.068 C 102.449 260.266,103.862 261.223,101.954 263.234 C 89.812 276.027,70.051 271.051,73.860 256.159 C 76.756 244.835,88.369 242.834,99.957 251.661 C 101.069 252.507,102.135 253.297,102.327 253.416 C 103.388 254.072,108.662 240.987,113.324 226.133 C 114.819 221.367,116.945 214.593,118.046 211.081 C 119.148 207.569,120.580 203.200,121.228 201.373 C 121.876 199.546,122.372 198.017,122.331 197.975 C 122.289 197.933,120.877 198.122,119.194 198.395 C 117.511 198.667,113.793 199.265,110.933 199.723 C 93.069 202.585,85.178 206.190,81.784 213.038 L 80.667 215.292 80.667 218.513 C 80.667 224.561,83.448 227.989,88.933 228.702 C 93.504 229.296,93.384 233.867,88.798 233.867 C 76.513 233.867,70.777 217.134,79.477 206.679 C 84.913 200.148,93.052 197.233,115.547 193.762 L 124.560 192.371 125.431 190.368 C 129.447 181.129,135.590 176.397,141.121 178.281 M136.056 183.723 C 134.547 184.816,130.869 189.891,131.284 190.307 C 132.069 191.092,138.666 187.139,139.607 185.320 C 140.759 183.092,138.395 182.029,136.056 183.723 M243.302 205.659 C 247.293 206.844,248.759 211.707,246.925 217.679 C 246.399 219.391,246.142 220.640,246.288 220.774 C 246.769 221.212,252.047 223.226,256.809 224.788 C 263.252 226.902,263.515 227.193,262.229 230.770 C 254.443 252.431,252.546 260.355,254.413 263.424 C 255.850 265.787,260.043 265.045,263.240 261.863 C 266.363 258.753,272.410 247.724,274.527 241.273 C 279.927 224.826,289.330 213.867,298.043 213.867 C 302.172 213.867,305.554 215.573,308.018 218.901 L 308.685 219.801 309.710 217.093 C 311.164 213.253,312.830 212.256,314.687 214.113 C 315.838 215.264,315.750 215.692,312.641 224.025 C 299.667 258.805,298.500 265.349,305.383 264.724 C 310.223 264.286,315.035 258.058,321.128 244.349 C 322.522 241.213,324.360 240.499,326.005 242.455 C 327.181 243.852,326.530 245.855,322.165 254.274 C 315.610 266.917,308.054 272.268,300.992 269.269 C 298.580 268.244,296.267 264.683,296.267 261.994 C 296.267 260.527,295.975 260.516,294.858 261.942 C 286.195 272.986,274.819 272.707,272.060 261.382 L 271.585 259.431 270.263 261.382 C 260.733 275.447,245.963 271.635,248.820 255.849 C 249.359 252.870,255.071 234.478,256.643 230.661 C 256.776 230.339,256.008 229.991,252.872 228.956 C 250.706 228.241,247.823 227.203,246.467 226.651 C 245.110 226.098,244.000 225.765,244.000 225.911 C 244.000 227.402,230.011 256.489,227.414 260.399 C 219.925 271.674,208.704 273.621,205.721 264.161 C 205.485 263.413,205.242 262.643,205.182 262.451 C 205.116 262.242,204.243 262.944,203.003 264.204 C 194.577 272.759,182.837 271.853,180.016 262.430 L 179.586 260.993 178.845 262.114 C 171.965 272.510,159.492 272.634,157.755 262.323 L 157.444 260.475 156.322 261.928 C 148.873 271.583,138.350 272.811,134.531 264.471 C 129.265 252.967,140.188 223.198,152.294 216.064 C 158.560 212.370,165.978 213.582,169.333 218.848 L 170.043 219.962 171.161 217.076 C 172.426 213.806,172.612 213.586,174.247 213.401 C 175.252 213.288,175.526 213.368,176.102 213.945 C 177.362 215.205,177.339 215.310,173.586 225.365 C 162.795 254.282,161.038 261.375,164.001 264.067 C 168.522 268.174,177.724 257.678,183.464 241.867 C 186.789 232.706,193.734 214.986,194.197 214.480 C 195.661 212.881,198.667 213.965,198.667 216.092 C 198.667 216.304,196.974 220.960,194.905 226.439 C 185.151 252.269,184.701 253.644,184.700 257.627 C 184.697 265.817,192.553 267.502,199.209 260.740 C 203.548 256.332,206.757 249.258,216.297 223.067 C 219.574 214.070,219.971 213.399,221.837 213.695 C 223.185 213.909,224.360 215.239,224.197 216.366 C 224.130 216.825,222.154 222.420,219.806 228.800 C 208.863 258.527,207.852 265.162,214.337 264.710 C 218.418 264.426,222.212 260.244,226.890 250.873 C 228.607 247.434,238.349 226.201,239.198 224.047 L 239.548 223.160 237.808 221.589 C 230.014 214.555,234.033 202.906,243.302 205.659 M239.796 210.676 C 238.359 211.254,238.514 214.261,240.087 216.318 C 241.290 217.891,241.505 217.865,242.047 216.085 C 243.254 212.125,242.242 209.694,239.796 210.676 M156.708 219.614 C 146.676 223.293,134.621 252.925,139.281 262.450 C 141.665 267.322,148.627 264.492,153.837 256.533 C 158.440 249.502,166.911 229.374,166.587 226.237 C 166.049 221.023,161.387 217.898,156.708 219.614 M294.376 220.046 C 285.609 224.384,275.364 247.719,277.037 259.541 C 277.603 263.542,278.887 264.913,281.890 264.722 C 288.771 264.285,294.880 255.255,303.211 233.204 L 305.386 227.445 305.111 225.883 C 304.120 220.255,299.276 217.621,294.376 220.046 M84.046 251.579 C 79.921 252.926,77.474 257.964,79.079 261.805 C 81.477 267.544,92.914 266.071,98.589 259.293 L 99.710 257.954 97.905 256.581 C 92.166 252.218,87.380 250.491,84.046 251.579 " stroke="none" fill="#fbeb04" fill-rule="evenodd"></path><path id="path2" d="M214.528 117.067 C 214.528 131.073,214.560 136.803,214.600 129.800 C 214.639 122.797,214.639 111.337,214.600 104.333 C 214.560 97.330,214.528 103.060,214.528 117.067 M334.256 104.133 C 334.256 111.027,334.291 113.885,334.333 110.485 C 334.375 107.085,334.375 101.445,334.333 97.952 C 334.291 94.458,334.256 97.240,334.256 104.133 M153.192 96.867 L 151.600 98.533 153.267 96.942 C 154.183 96.066,154.933 95.316,154.933 95.275 C 154.933 95.078,154.670 95.318,153.192 96.867 M183.200 95.550 C 183.200 95.596,183.590 95.986,184.067 96.417 L 184.933 97.200 184.150 96.333 C 183.420 95.525,183.200 95.344,183.200 95.550 M65.867 110.667 L 65.867 116.800 73.667 116.738 L 81.467 116.675 73.800 116.600 L 66.133 116.525 66.133 110.666 L 66.133 104.806 76.200 104.733 L 86.267 104.660 76.067 104.597 L 65.867 104.533 65.867 110.667 M278.667 112.933 C 279.164 113.447,279.631 113.867,279.705 113.867 C 279.778 113.867,279.431 113.447,278.933 112.933 C 278.436 112.420,277.969 112.000,277.895 112.000 C 277.822 112.000,278.169 112.420,278.667 112.933 M171.849 125.067 C 171.849 128.660,171.886 130.130,171.933 128.333 C 171.979 126.537,171.979 123.597,171.933 121.800 C 171.886 120.003,171.849 121.473,171.849 125.067 M144.862 120.267 C 144.862 120.780,144.917 120.990,144.984 120.733 C 145.051 120.477,145.051 120.057,144.984 119.800 C 144.917 119.543,144.862 119.753,144.862 120.267 M160.904 123.467 C 160.904 125.447,160.946 126.257,160.998 125.267 C 161.049 124.277,161.049 122.657,160.998 121.667 C 160.946 120.677,160.904 121.487,160.904 123.467 M296.800 124.667 C 297.745 125.620,298.578 126.400,298.651 126.400 C 298.725 126.400,298.012 125.620,297.067 124.667 C 296.122 123.713,295.289 122.933,295.215 122.933 C 295.142 122.933,295.855 123.713,296.800 124.667 M144.862 126.667 C 144.862 127.180,144.917 127.390,144.984 127.133 C 145.051 126.877,145.051 126.457,144.984 126.200 C 144.917 125.943,144.862 126.153,144.862 126.667 M65.981 136.267 C 65.981 139.713,66.019 141.123,66.066 139.400 C 66.112 137.677,66.112 134.857,66.066 133.133 C 66.019 131.410,65.981 132.820,65.981 136.267 M334.257 142.667 C 334.257 149.633,334.291 152.483,334.333 149.000 C 334.375 145.517,334.375 139.817,334.333 136.333 C 334.291 132.850,334.257 135.700,334.257 142.667 M302.206 137.867 C 302.206 138.527,302.258 138.797,302.322 138.467 C 302.385 138.137,302.385 137.597,302.322 137.267 C 302.258 136.937,302.206 137.207,302.206 137.867 M173.983 140.600 L 173.200 141.467 174.067 140.683 C 174.543 140.253,174.933 139.863,174.933 139.817 C 174.933 139.611,174.713 139.792,173.983 140.600 M235.315 148.800 C 235.315 152.393,235.353 153.863,235.399 152.067 C 235.445 150.270,235.445 147.330,235.399 145.533 C 235.353 143.737,235.315 145.207,235.315 148.800 M184.125 150.200 L 182.533 151.867 184.200 150.275 C 185.117 149.400,185.867 148.650,185.867 148.608 C 185.867 148.411,185.603 148.652,184.125 150.200 M297.187 150.467 L 296.133 151.600 297.267 150.546 C 298.321 149.566,298.523 149.333,298.321 149.333 C 298.277 149.333,297.767 149.843,297.187 150.467 M267.333 150.933 C 268.056 151.667,268.707 152.267,268.780 152.267 C 268.853 152.267,268.322 151.667,267.600 150.933 C 266.878 150.200,266.227 149.600,266.153 149.600 C 266.080 149.600,266.611 150.200,267.333 150.933 M95.533 161.800 C 97.990 161.844,102.010 161.844,104.467 161.800 C 106.923 161.756,104.913 161.720,100.000 161.720 C 95.087 161.720,93.077 161.756,95.533 161.800 M201.000 161.800 C 220.837 161.838,253.297 161.838,273.133 161.800 C 292.970 161.762,276.740 161.731,237.067 161.731 C 197.393 161.731,181.163 161.762,201.000 161.800 M62.391 174.333 L 60.933 175.867 62.467 174.409 C 63.310 173.607,64.000 172.917,64.000 172.876 C 64.000 172.678,63.745 172.909,62.391 174.333 M337.600 174.267 C 338.397 175.073,339.108 175.733,339.182 175.733 C 339.255 175.733,338.663 175.073,337.867 174.267 C 337.070 173.460,336.358 172.800,336.285 172.800 C 336.212 172.800,336.803 173.460,337.600 174.267 M49.996 235.600 C 49.996 254.227,50.028 261.807,50.067 252.446 C 50.106 243.085,50.105 227.845,50.067 218.579 C 50.028 209.314,49.996 216.973,49.996 235.600 M350.263 235.600 C 350.263 254.227,350.294 261.807,350.333 252.446 C 350.372 243.085,350.372 227.845,350.333 218.579 C 350.294 209.314,350.263 216.973,350.263 235.600 M60.933 295.200 C 61.506 295.787,62.035 296.267,62.108 296.267 C 62.182 296.267,61.773 295.787,61.200 295.200 C 60.627 294.613,60.098 294.133,60.025 294.133 C 59.952 294.133,60.360 294.613,60.933 295.200 M339.054 295.267 L 338.000 296.400 339.133 295.346 C 340.187 294.366,340.389 294.133,340.187 294.133 C 340.144 294.133,339.634 294.643,339.054 295.267 M336.121 298.200 L 335.067 299.333 336.200 298.279 C 337.254 297.299,337.456 297.067,337.254 297.067 C 337.211 297.067,336.701 297.577,336.121 298.200 M64.000 298.267 C 64.498 298.780,64.965 299.200,65.038 299.200 C 65.111 299.200,64.764 298.780,64.267 298.267 C 63.769 297.753,63.302 297.333,63.229 297.333 C 63.155 297.333,63.502 297.753,64.000 298.267 M89.267 309.255 C 89.597 309.318,90.137 309.318,90.467 309.255 C 90.797 309.191,90.527 309.139,89.867 309.139 C 89.207 309.139,88.937 309.191,89.267 309.255 M309.800 309.255 C 310.130 309.318,310.670 309.318,311.000 309.255 C 311.330 309.191,311.060 309.139,310.400 309.139 C 309.740 309.139,309.470 309.191,309.800 309.255 " stroke="none" fill="#d5f1de" fill-rule="evenodd"></path><path id="path3" d="M159.000 219.117 C 159.257 219.184,159.677 219.184,159.933 219.117 C 160.190 219.050,159.980 218.995,159.467 218.995 C 158.953 218.995,158.743 219.050,159.000 219.117 M138.216 256.667 C 138.217 257.547,138.267 257.875,138.327 257.395 C 138.386 256.916,138.385 256.196,138.324 255.795 C 138.263 255.395,138.214 255.787,138.216 256.667 M210.206 260.267 C 210.206 260.927,210.258 261.197,210.322 260.867 C 210.385 260.537,210.385 259.997,210.322 259.667 C 210.258 259.337,210.206 259.607,210.206 260.267 M110.000 260.533 C 110.573 261.120,111.102 261.600,111.175 261.600 C 111.248 261.600,110.840 261.120,110.267 260.533 C 109.694 259.947,109.165 259.467,109.092 259.467 C 109.018 259.467,109.427 259.947,110.000 260.533 M292.252 264.733 L 291.333 265.733 292.333 264.814 C 293.264 263.959,293.456 263.733,293.252 263.733 C 293.208 263.733,292.758 264.183,292.252 264.733 M107.200 264.873 C 107.200 264.914,108.130 265.844,109.267 266.940 L 111.333 268.933 109.340 266.867 C 107.489 264.947,107.200 264.678,107.200 264.873 M142.333 270.055 C 142.663 270.118,143.203 270.118,143.533 270.055 C 143.863 269.991,143.593 269.939,142.933 269.939 C 142.273 269.939,142.003 269.991,142.333 270.055 M165.533 270.055 C 165.863 270.118,166.403 270.118,166.733 270.055 C 167.063 269.991,166.793 269.939,166.133 269.939 C 165.473 269.939,165.203 269.991,165.533 270.055 M190.204 270.058 C 190.609 270.119,191.209 270.118,191.537 270.054 C 191.865 269.991,191.533 269.941,190.800 269.943 C 190.067 269.945,189.798 269.997,190.204 270.058 M213.137 270.058 C 213.542 270.119,214.142 270.118,214.470 270.054 C 214.798 269.991,214.467 269.941,213.733 269.943 C 213.000 269.945,212.732 269.997,213.137 270.058 M256.467 270.055 C 256.797 270.118,257.337 270.118,257.667 270.055 C 257.997 269.991,257.727 269.939,257.067 269.939 C 256.407 269.939,256.137 269.991,256.467 270.055 M280.733 270.055 C 281.063 270.118,281.603 270.118,281.933 270.055 C 282.263 269.991,281.993 269.939,281.333 269.939 C 280.673 269.939,280.403 269.991,280.733 270.055 M304.200 270.055 C 304.530 270.118,305.070 270.118,305.400 270.055 C 305.730 269.991,305.460 269.939,304.800 269.939 C 304.140 269.939,303.870 269.991,304.200 270.055 " stroke="none" fill="#94d365" fill-rule="evenodd"></path><path id="path4" d="M49.996 123.467 C 49.996 140.993,50.028 148.163,50.067 139.400 C 50.106 130.637,50.106 116.297,50.067 107.533 C 50.028 98.770,49.996 105.940,49.996 123.467 M123.325 107.067 C 123.325 115.573,123.359 119.092,123.400 114.886 C 123.441 110.680,123.441 103.720,123.400 99.419 C 123.359 95.119,123.325 98.560,123.325 107.067 M255.862 123.467 C 255.862 140.993,255.894 148.163,255.933 139.400 C 255.972 130.637,255.972 116.297,255.933 107.533 C 255.894 98.770,255.862 105.940,255.862 123.467 M323.329 104.200 L 323.333 116.667 328.933 116.675 L 334.533 116.684 329.003 116.603 L 323.472 116.523 323.399 104.128 L 323.325 91.733 323.329 104.200 M350.262 123.467 C 350.262 140.993,350.294 148.163,350.333 139.400 C 350.372 130.637,350.372 116.297,350.333 107.533 C 350.294 98.770,350.262 105.940,350.262 123.467 M81.182 123.333 C 81.182 127.000,81.220 128.537,81.266 126.749 C 81.312 124.961,81.312 121.961,81.266 120.082 C 81.220 118.204,81.182 119.667,81.182 123.333 M160.862 119.200 C 160.862 119.713,160.917 119.923,160.984 119.667 C 161.051 119.410,161.051 118.990,160.984 118.733 C 160.917 118.477,160.862 118.687,160.862 119.200 M144.896 123.467 C 144.896 124.860,144.941 125.430,144.996 124.733 C 145.051 124.037,145.051 122.897,144.996 122.200 C 144.941 121.503,144.896 122.073,144.896 123.467 M323.322 130.200 C 323.252 130.383,323.227 136.113,323.267 142.933 L 323.339 155.333 323.403 142.739 L 323.467 130.144 329.000 130.066 L 334.533 129.989 328.992 129.928 C 324.758 129.881,323.420 129.945,323.322 130.200 M168.470 142.589 C 168.801 142.652,169.281 142.650,169.536 142.583 C 169.791 142.516,169.520 142.464,168.933 142.467 C 168.347 142.470,168.138 142.525,168.470 142.589 M153.333 150.000 C 153.831 150.513,154.298 150.933,154.371 150.933 C 154.445 150.933,154.098 150.513,153.600 150.000 C 153.102 149.487,152.635 149.067,152.562 149.067 C 152.489 149.067,152.836 149.487,153.333 150.000 M137.667 178.058 C 138.070 178.119,138.730 178.119,139.133 178.058 C 139.537 177.997,139.207 177.947,138.400 177.947 C 137.593 177.947,137.263 177.997,137.667 178.058 M294.733 181.528 C 295.283 181.585,296.183 181.585,296.733 181.528 C 297.283 181.470,296.833 181.423,295.733 181.423 C 294.633 181.423,294.183 181.470,294.733 181.528 M300.738 181.527 C 301.217 181.586,301.937 181.585,302.338 181.524 C 302.739 181.463,302.347 181.414,301.467 181.416 C 300.587 181.417,300.259 181.467,300.738 181.527 M312.067 181.517 C 312.323 181.584,312.743 181.584,313.000 181.517 C 313.257 181.450,313.047 181.395,312.533 181.395 C 312.020 181.395,311.810 181.450,312.067 181.517 M294.133 183.351 C 295.029 183.551,297.007 183.586,296.892 183.400 C 296.824 183.290,296.086 183.214,295.251 183.231 C 294.416 183.248,293.913 183.302,294.133 183.351 M300.067 183.394 C 300.617 183.452,301.517 183.452,302.067 183.394 C 302.617 183.337,302.167 183.290,301.067 183.290 C 299.967 183.290,299.517 183.337,300.067 183.394 M275.543 194.800 C 275.545 195.533,275.597 195.802,275.658 195.396 C 275.719 194.991,275.718 194.391,275.654 194.063 C 275.591 193.735,275.541 194.067,275.543 194.800 M313.139 198.933 C 313.139 199.593,313.191 199.863,313.255 199.533 C 313.318 199.203,313.318 198.663,313.255 198.333 C 313.191 198.003,313.139 198.273,313.139 198.933 M279.667 199.922 C 279.997 199.985,280.537 199.985,280.867 199.922 C 281.197 199.858,280.927 199.806,280.267 199.806 C 279.607 199.806,279.337 199.858,279.667 199.922 M80.519 205.533 L 79.600 206.533 80.600 205.614 C 81.531 204.759,81.723 204.533,81.519 204.533 C 81.474 204.533,81.024 204.983,80.519 205.533 M233.685 213.067 C 233.685 214.020,233.734 214.410,233.793 213.933 C 233.852 213.457,233.852 212.677,233.793 212.200 C 233.734 211.723,233.685 212.113,233.685 213.067 M173.933 213.517 C 174.190 213.584,174.610 213.584,174.867 213.517 C 175.123 213.450,174.913 213.395,174.400 213.395 C 173.887 213.395,173.677 213.450,173.933 213.517 M312.600 213.517 C 312.857 213.584,313.277 213.584,313.533 213.517 C 313.790 213.450,313.580 213.395,313.067 213.395 C 312.553 213.395,312.343 213.450,312.600 213.517 M158.733 214.058 C 159.137 214.119,159.797 214.119,160.200 214.058 C 160.603 213.997,160.273 213.947,159.467 213.947 C 158.660 213.947,158.330 213.997,158.733 214.058 M297.404 214.058 C 297.809 214.119,298.409 214.118,298.737 214.054 C 299.065 213.991,298.733 213.941,298.000 213.943 C 297.267 213.945,296.998 213.997,297.404 214.058 M75.283 218.267 C 75.284 219.147,75.334 219.475,75.393 218.995 C 75.453 218.516,75.451 217.796,75.391 217.395 C 75.330 216.995,75.281 217.387,75.283 218.267 M148.117 219.533 L 147.333 220.400 148.200 219.617 C 148.677 219.186,149.067 218.796,149.067 218.750 C 149.067 218.544,148.847 218.725,148.117 219.533 M78.933 229.150 C 78.933 229.196,79.323 229.586,79.800 230.017 L 80.667 230.800 79.883 229.933 C 79.153 229.125,78.933 228.944,78.933 229.150 M133.158 256.933 C 133.159 258.107,133.206 258.553,133.262 257.926 C 133.319 257.299,133.318 256.339,133.261 255.793 C 133.203 255.247,133.157 255.760,133.158 256.933 M276.595 256.533 C 276.595 257.047,276.650 257.257,276.717 257.000 C 276.784 256.743,276.784 256.323,276.717 256.067 C 276.650 255.810,276.595 256.020,276.595 256.533 M73.406 259.467 C 73.406 260.127,73.458 260.397,73.522 260.067 C 73.585 259.737,73.585 259.197,73.522 258.867 C 73.458 258.537,73.406 258.807,73.406 259.467 M301.147 260.000 C 301.147 260.807,301.197 261.137,301.258 260.733 C 301.319 260.330,301.319 259.670,301.258 259.267 C 301.197 258.863,301.147 259.193,301.147 260.000 M149.983 261.400 L 149.200 262.267 150.067 261.483 C 150.543 261.053,150.933 260.663,150.933 260.617 C 150.933 260.411,150.713 260.592,149.983 261.400 M310.919 261.800 L 310.000 262.800 311.000 261.881 C 311.550 261.376,312.000 260.926,312.000 260.881 C 312.000 260.677,311.774 260.869,310.919 261.800 M112.400 262.933 C 113.122 263.667,113.773 264.267,113.847 264.267 C 113.920 264.267,113.389 263.667,112.667 262.933 C 111.944 262.200,111.293 261.600,111.220 261.600 C 111.147 261.600,111.678 262.200,112.400 262.933 M105.600 263.283 C 105.600 263.329,105.990 263.719,106.467 264.150 L 107.333 264.933 106.550 264.067 C 105.820 263.259,105.600 263.077,105.600 263.283 M202.517 264.600 L 201.733 265.467 202.600 264.683 C 203.077 264.253,203.467 263.863,203.467 263.817 C 203.467 263.611,203.247 263.792,202.517 264.600 M266.652 265.533 L 265.733 266.533 266.733 265.614 C 267.664 264.759,267.856 264.533,267.652 264.533 C 267.608 264.533,267.158 264.983,266.652 265.533 M142.336 264.989 C 142.668 265.052,143.148 265.050,143.403 264.983 C 143.658 264.916,143.387 264.864,142.800 264.867 C 142.213 264.870,142.005 264.925,142.336 264.989 M165.803 264.989 C 166.135 265.052,166.615 265.050,166.870 264.983 C 167.125 264.916,166.853 264.864,166.267 264.867 C 165.680 264.870,165.471 264.925,165.803 264.989 M190.333 264.988 C 190.663 265.052,191.203 265.052,191.533 264.988 C 191.863 264.925,191.593 264.873,190.933 264.873 C 190.273 264.873,190.003 264.925,190.333 264.988 M213.270 264.989 C 213.601 265.052,214.081 265.050,214.336 264.983 C 214.591 264.916,214.320 264.864,213.733 264.867 C 213.147 264.870,212.938 264.925,213.270 264.989 M223.050 265.667 L 222.267 266.533 223.133 265.750 C 223.610 265.319,224.000 264.929,224.000 264.883 C 224.000 264.677,223.780 264.859,223.050 265.667 M256.736 264.989 C 257.068 265.052,257.548 265.050,257.803 264.983 C 258.058 264.916,257.787 264.864,257.200 264.867 C 256.613 264.870,256.405 264.925,256.736 264.989 M281.003 264.989 C 281.335 265.052,281.815 265.050,282.070 264.983 C 282.325 264.916,282.053 264.864,281.467 264.867 C 280.880 264.870,280.671 264.925,281.003 264.989 M304.333 264.984 C 304.590 265.051,305.010 265.051,305.267 264.984 C 305.523 264.917,305.313 264.862,304.800 264.862 C 304.287 264.862,304.077 264.917,304.333 264.984 M85.667 270.584 C 85.923 270.651,86.343 270.651,86.600 270.584 C 86.857 270.517,86.647 270.462,86.133 270.462 C 85.620 270.462,85.410 270.517,85.667 270.584 M146.600 287.388 C 146.930 287.452,147.470 287.452,147.800 287.388 C 148.130 287.325,147.860 287.273,147.200 287.273 C 146.540 287.273,146.270 287.325,146.600 287.388 M146.338 292.460 C 146.817 292.519,147.537 292.518,147.938 292.457 C 148.339 292.396,147.947 292.348,147.067 292.349 C 146.187 292.351,145.859 292.401,146.338 292.460 " stroke="none" fill="#74cc84" fill-rule="evenodd"></path></g></svg>